<svg xmlns="http://www.w3.org/2000/svg" xmlns:xlink="http://www.w3.org/1999/xlink" width="500" zoomAndPan="magnify" viewBox="0 0 375 374.999991" height="500" preserveAspectRatio="xMidYMid meet" version="1.0"><defs><g/><clipPath id="a5afd224da"><path d="M 177 37.5 L 197 37.5 L 197 56 L 177 56 Z M 177 37.5 " clip-rule="nonzero"/></clipPath><clipPath id="5d9e73d884"><path d="M 177 271 L 197 271 L 197 289.398438 L 177 289.398438 Z M 177 271 " clip-rule="nonzero"/></clipPath><clipPath id="cd8dc005cc"><path d="M 294 154 L 313.089844 154 L 313.089844 173 L 294 173 Z M 294 154 " clip-rule="nonzero"/></clipPath><clipPath id="bf12eadce3"><path d="M 61.195312 154 L 80 154 L 80 173 L 61.195312 173 Z M 61.195312 154 " clip-rule="nonzero"/></clipPath></defs><path fill="#ffffff" d="M 227.699219 189.554688 C 232.25 184.460938 232.285156 176.902344 228.074219 171.789062 C 232.980469 165.445312 236.914062 158.710938 239.816406 151.648438 C 243.484375 142.734375 245.527344 133.296875 245.890625 123.59375 C 246.304688 112.574219 244.480469 103.820312 243.15625 99.066406 C 246.171875 95.90625 246.886719 91.023438 244.59375 87.050781 C 241.804688 82.222656 235.632812 80.570312 230.804688 83.355469 C 225.976562 86.144531 224.324219 92.316406 227.109375 97.144531 C 229.746094 101.710938 235.40625 103.4375 240.097656 101.257812 C 241.304688 106.011719 242.765625 113.960938 242.382812 123.617188 C 242.191406 128.398438 241.527344 133.933594 239.984375 139.929688 C 239.390625 138.257812 238.730469 136.605469 237.996094 134.972656 C 234.449219 127.089844 230.117188 121.574219 227.53125 118.695312 C 228.546875 115.425781 227.351562 111.75 224.355469 109.757812 C 220.71875 107.339844 215.804688 108.324219 213.382812 111.964844 C 210.964844 115.605469 211.953125 120.515625 215.59375 122.9375 C 219.03125 125.226562 223.609375 124.464844 226.144531 121.300781 C 228.652344 124.222656 232.445312 129.296875 235.539062 136.214844 C 236.644531 138.683594 237.710938 141.519531 238.597656 144.6875 C 236.050781 152.515625 231.949219 160.945312 225.5 169.371094 C 219.902344 165.328125 212.042969 166.089844 207.339844 171.351562 C 202.308594 176.972656 202.792969 185.605469 208.414062 190.632812 C 214.039062 195.660156 222.671875 195.175781 227.699219 189.554688 " fill-opacity="1" fill-rule="nonzero"/><path fill="#00adef" d="M 184.8125 211.625 C 191.5 213.019531 198.0625 209.269531 200.386719 203.066406 C 208.332031 204.144531 216.132812 204.183594 223.699219 203.164062 C 233.25 201.882812 242.445312 198.933594 251.03125 194.398438 C 260.78125 189.25 267.449219 183.289062 270.90625 179.769531 C 275.148438 180.800781 279.738281 178.976562 282.03125 175.003906 C 284.816406 170.175781 283.164062 164.003906 278.335938 161.214844 C 273.507812 158.429688 267.335938 160.082031 264.546875 164.910156 C 261.910156 169.472656 263.246094 175.242188 267.480469 178.210938 C 263.964844 181.636719 257.8125 186.875 249.257812 191.371094 C 245.019531 193.597656 239.894531 195.789062 233.933594 197.449219 C 235.085938 196.101562 236.183594 194.703125 237.230469 193.253906 C 242.285156 186.238281 244.894531 179.726562 246.09375 176.050781 C 249.433594 175.292969 252.019531 172.417969 252.25 168.832031 C 252.523438 164.46875 249.210938 160.707031 244.847656 160.433594 C 240.488281 160.15625 236.726562 163.46875 236.449219 167.832031 C 236.191406 171.953125 239.136719 175.539062 243.144531 176.152344 C 241.867188 179.78125 239.371094 185.605469 234.929688 191.742188 C 233.339844 193.933594 231.421875 196.277344 229.121094 198.628906 C 221.0625 200.335938 211.710938 201 201.191406 199.628906 C 201.894531 192.757812 197.304688 186.332031 190.394531 184.886719 C 183.015625 183.347656 175.777344 188.082031 174.238281 195.464844 C 172.695312 202.847656 177.429688 210.082031 184.8125 211.625 " fill-opacity="1" fill-rule="nonzero"/><path fill="#ffffff" d="M 144.257812 185.519531 C 146.390625 192.007812 152.921875 195.816406 159.457031 194.726562 C 162.492188 202.148438 166.363281 208.921875 171.023438 214.964844 C 176.910156 222.597656 184.0625 229.085938 192.285156 234.253906 C 201.617188 240.121094 210.113281 242.917969 214.890625 244.152344 C 216.121094 248.339844 219.992188 251.398438 224.578125 251.398438 C 230.152344 251.398438 234.671875 246.882812 234.671875 241.308594 C 234.671875 235.734375 230.152344 231.214844 224.578125 231.214844 C 219.308594 231.214844 214.980469 235.253906 214.523438 240.402344 C 209.800781 239.070312 202.1875 236.363281 194.019531 231.203125 C 189.972656 228.648438 185.507812 225.300781 181.089844 220.972656 C 182.832031 221.292969 184.597656 221.546875 186.375 221.726562 C 194.980469 222.597656 201.921875 221.601562 205.707031 220.804688 C 208.027344 223.316406 211.8125 224.121094 215.035156 222.523438 C 218.949219 220.578125 220.550781 215.832031 218.609375 211.914062 C 216.664062 208 211.917969 206.398438 208 208.339844 C 204.300781 210.175781 202.667969 214.519531 204.144531 218.300781 C 200.359375 219.007812 194.070312 219.757812 186.53125 218.980469 C 183.839844 218.703125 180.851562 218.207031 177.664062 217.390625 C 172.15625 211.269531 166.90625 203.503906 162.835938 193.707031 C 169.136719 190.878906 172.40625 183.691406 170.203125 176.984375 C 167.847656 169.820312 160.128906 165.925781 152.964844 168.28125 C 145.796875 170.636719 141.898438 178.355469 144.257812 185.519531 " fill-opacity="1" fill-rule="nonzero"/><path fill="#00adef" d="M 146.585938 137.34375 C 142.035156 142.433594 142 149.992188 146.210938 155.109375 C 141.304688 161.449219 137.371094 168.1875 134.46875 175.25 C 130.800781 184.164062 128.757812 193.601562 128.394531 203.300781 C 127.980469 214.320312 129.804688 223.078125 131.125 227.832031 C 128.113281 230.988281 127.398438 235.871094 129.691406 239.84375 C 132.480469 244.671875 138.652344 246.328125 143.480469 243.539062 C 148.308594 240.753906 149.960938 234.578125 147.175781 229.75 C 144.539062 225.1875 138.878906 223.460938 134.1875 225.640625 C 132.980469 220.882812 131.523438 212.933594 131.902344 203.277344 C 132.09375 198.496094 132.757812 192.960938 134.300781 186.96875 C 134.894531 188.640625 135.554688 190.292969 136.289062 191.921875 C 139.835938 199.808594 144.167969 205.324219 146.753906 208.203125 C 145.738281 211.472656 146.933594 215.148438 149.929688 217.140625 C 153.570312 219.558594 158.480469 218.570312 160.902344 214.929688 C 163.324219 211.292969 162.332031 206.378906 158.695312 203.960938 C 155.253906 201.671875 150.675781 202.429688 148.140625 205.59375 C 145.636719 202.675781 141.839844 197.601562 138.746094 190.683594 C 137.640625 188.214844 136.574219 185.378906 135.6875 182.210938 C 138.238281 174.378906 142.335938 165.953125 148.785156 157.527344 C 154.382812 161.570312 162.242188 160.808594 166.949219 155.546875 C 171.976562 149.925781 171.492188 141.289062 165.867188 136.265625 C 160.246094 131.238281 151.613281 131.71875 146.585938 137.34375 " fill-opacity="1" fill-rule="nonzero"/><path fill="#ffffff" d="M 189.472656 115.273438 C 182.785156 113.878906 176.222656 117.628906 173.898438 123.832031 C 165.953125 122.75 158.152344 122.714844 150.585938 123.730469 C 141.035156 125.011719 131.835938 127.960938 123.253906 132.5 C 113.503906 137.648438 106.835938 143.605469 103.378906 147.128906 C 99.136719 146.097656 94.550781 147.921875 92.253906 151.894531 C 89.46875 156.71875 91.121094 162.894531 95.949219 165.679688 C 100.777344 168.46875 106.953125 166.816406 109.738281 161.988281 C 112.375 157.421875 111.039062 151.65625 106.804688 148.683594 C 110.324219 145.261719 116.476562 140.023438 125.027344 135.527344 C 129.265625 133.296875 134.394531 131.109375 140.355469 129.445312 C 139.199219 130.792969 138.101562 132.195312 137.054688 133.644531 C 132 140.660156 129.394531 147.171875 128.191406 150.847656 C 124.851562 151.601562 122.265625 154.476562 122.039062 158.066406 C 121.761719 162.429688 125.074219 166.1875 129.4375 166.464844 C 133.800781 166.742188 137.558594 163.429688 137.835938 159.066406 C 138.09375 154.941406 135.148438 151.359375 131.140625 150.746094 C 132.417969 147.113281 134.914062 141.292969 139.355469 135.152344 C 140.941406 132.960938 142.867188 130.617188 145.164062 128.269531 C 153.222656 126.5625 162.574219 125.898438 173.09375 127.269531 C 172.390625 134.136719 176.980469 140.566406 183.886719 142.007812 C 191.273438 143.550781 198.503906 138.816406 200.046875 131.433594 C 201.589844 124.050781 196.855469 116.8125 189.472656 115.273438 " fill-opacity="1" fill-rule="nonzero"/><path fill="#00adef" d="M 230.027344 141.378906 C 227.894531 134.890625 221.363281 131.082031 214.828125 132.167969 C 211.792969 124.75 207.925781 117.976562 203.261719 111.929688 C 197.375 104.296875 190.222656 97.8125 182.003906 92.644531 C 172.667969 86.777344 164.171875 83.980469 159.394531 82.746094 C 158.164062 78.554688 154.292969 75.496094 149.707031 75.496094 C 144.132812 75.496094 139.613281 80.015625 139.613281 85.589844 C 139.613281 91.164062 144.132812 95.683594 149.707031 95.683594 C 154.976562 95.683594 159.304688 91.644531 159.761719 86.492188 C 164.484375 87.824219 172.097656 90.535156 180.269531 95.695312 C 184.316406 98.25 188.777344 101.59375 193.195312 105.925781 C 191.449219 105.601562 189.6875 105.351562 187.910156 105.167969 C 179.308594 104.300781 172.367188 105.296875 168.578125 106.09375 C 166.257812 103.578125 162.472656 102.777344 159.25 104.375 C 155.335938 106.320312 153.734375 111.066406 155.675781 114.984375 C 157.621094 118.898438 162.367188 120.496094 166.285156 118.554688 C 169.984375 116.71875 171.617188 112.375 170.140625 108.597656 C 173.925781 107.890625 180.214844 107.140625 187.753906 107.914062 C 190.445312 108.195312 193.433594 108.6875 196.621094 109.503906 C 202.128906 115.628906 207.378906 123.394531 211.449219 133.191406 C 205.148438 136.019531 201.878906 143.207031 204.082031 149.910156 C 206.4375 157.074219 214.15625 160.972656 221.320312 158.617188 C 228.484375 156.261719 232.386719 148.542969 230.027344 141.378906 " fill-opacity="1" fill-rule="nonzero"/><g clip-path="url(#a5afd224da)"><path fill="#ffffff" d="M 196.3125 46.667969 C 196.3125 51.734375 192.207031 55.839844 187.144531 55.839844 C 182.078125 55.839844 177.972656 51.734375 177.972656 46.667969 C 177.972656 41.605469 182.078125 37.5 187.144531 37.5 C 192.207031 37.5 196.3125 41.605469 196.3125 46.667969 " fill-opacity="1" fill-rule="nonzero"/></g><g clip-path="url(#5d9e73d884)"><path fill="#ffffff" d="M 196.3125 280.226562 C 196.3125 285.292969 192.207031 289.398438 187.144531 289.398438 C 182.078125 289.398438 177.972656 285.292969 177.972656 280.226562 C 177.972656 275.164062 182.078125 271.058594 187.144531 271.058594 C 192.207031 271.058594 196.3125 275.164062 196.3125 280.226562 " fill-opacity="1" fill-rule="nonzero"/></g><g clip-path="url(#cd8dc005cc)"><path fill="#ffffff" d="M 303.921875 172.617188 C 298.855469 172.617188 294.75 168.511719 294.75 163.449219 C 294.75 158.386719 298.855469 154.277344 303.921875 154.277344 C 308.988281 154.277344 313.089844 158.386719 313.089844 163.449219 C 313.089844 168.511719 308.988281 172.617188 303.921875 172.617188 " fill-opacity="1" fill-rule="nonzero"/></g><g clip-path="url(#bf12eadce3)"><path fill="#ffffff" d="M 70.363281 172.617188 C 65.300781 172.617188 61.195312 168.511719 61.195312 163.449219 C 61.195312 158.386719 65.300781 154.28125 70.363281 154.28125 C 75.425781 154.28125 79.53125 158.386719 79.53125 163.449219 C 79.53125 168.511719 75.425781 172.617188 70.363281 172.617188 " fill-opacity="1" fill-rule="nonzero"/></g><path fill="#ffffff" d="M 276.203125 87.355469 C 272.621094 90.9375 266.816406 90.9375 263.234375 87.355469 C 259.652344 83.777344 259.652344 77.96875 263.234375 74.390625 C 266.816406 70.808594 272.621094 70.808594 276.203125 74.390625 C 279.78125 77.96875 279.78125 83.777344 276.203125 87.355469 " fill-opacity="1" fill-rule="nonzero"/><path fill="#ffffff" d="M 111.050781 252.507812 C 107.46875 256.089844 101.664062 256.089844 98.082031 252.507812 C 94.503906 248.925781 94.503906 243.121094 98.082031 239.539062 C 101.664062 235.957031 107.46875 235.957031 111.050781 239.539062 C 114.632812 243.121094 114.632812 248.925781 111.050781 252.507812 " fill-opacity="1" fill-rule="nonzero"/><path fill="#ffffff" d="M 263.234375 252.507812 C 259.652344 248.925781 259.652344 243.121094 263.234375 239.539062 C 266.816406 235.957031 272.621094 235.957031 276.203125 239.539062 C 279.78125 243.121094 279.78125 248.925781 276.203125 252.507812 C 272.621094 256.089844 266.816406 256.089844 263.234375 252.507812 " fill-opacity="1" fill-rule="nonzero"/><path fill="#ffffff" d="M 98.082031 87.355469 C 94.503906 83.777344 94.503906 77.96875 98.082031 74.390625 C 101.664062 70.808594 107.46875 70.808594 111.050781 74.390625 C 114.632812 77.96875 114.632812 83.777344 111.050781 87.355469 C 107.46875 90.9375 101.664062 90.9375 98.082031 87.355469 " fill-opacity="1" fill-rule="nonzero"/><path fill="#00adef" d="M 241.621094 59.75 C 239.625 64.402344 234.234375 66.558594 229.578125 64.558594 C 224.925781 62.5625 222.773438 57.171875 224.769531 52.515625 C 226.765625 47.863281 232.15625 45.710938 236.8125 47.707031 C 241.464844 49.703125 243.621094 55.09375 241.621094 59.75 " fill-opacity="1" fill-rule="nonzero"/><path fill="#00adef" d="M 149.515625 274.378906 C 147.519531 279.035156 142.128906 281.1875 137.472656 279.191406 C 132.820312 277.191406 130.667969 271.800781 132.664062 267.148438 C 134.660156 262.492188 140.054688 260.339844 144.707031 262.335938 C 149.359375 264.335938 151.515625 269.726562 149.515625 274.378906 " fill-opacity="1" fill-rule="nonzero"/><path fill="#00adef" d="M 290.84375 217.925781 C 286.1875 215.929688 284.035156 210.539062 286.03125 205.882812 C 288.027344 201.230469 293.421875 199.078125 298.074219 201.074219 C 302.730469 203.070312 304.878906 208.464844 302.886719 213.117188 C 300.886719 217.769531 295.496094 219.925781 290.84375 217.925781 " fill-opacity="1" fill-rule="nonzero"/><path fill="#00adef" d="M 76.210938 125.824219 C 71.558594 123.824219 69.402344 118.433594 71.402344 113.78125 C 73.398438 109.125 78.789062 106.972656 83.445312 108.96875 C 88.097656 110.964844 90.25 116.359375 88.253906 121.011719 C 86.257812 125.667969 80.867188 127.820312 76.210938 125.824219 " fill-opacity="1" fill-rule="nonzero"/><path fill="#00adef" d="M 298.992188 128.644531 C 294.289062 130.523438 288.953125 128.234375 287.074219 123.53125 C 285.195312 118.828125 287.484375 113.492188 292.1875 111.613281 C 296.890625 109.734375 302.226562 112.023438 304.105469 116.726562 C 305.984375 121.429688 303.695312 126.765625 298.992188 128.644531 " fill-opacity="1" fill-rule="nonzero"/><path fill="#00adef" d="M 82.097656 215.285156 C 77.394531 217.160156 72.058594 214.871094 70.179688 210.167969 C 68.300781 205.46875 70.589844 200.128906 75.292969 198.253906 C 79.996094 196.375 85.332031 198.664062 87.210938 203.367188 C 89.089844 208.070312 86.800781 213.40625 82.097656 215.285156 " fill-opacity="1" fill-rule="nonzero"/><path fill="#00adef" d="M 194.09375 74.9375 C 194.09375 78.777344 190.980469 81.886719 187.144531 81.886719 C 183.304688 81.886719 180.191406 78.777344 180.191406 74.9375 C 180.191406 71.097656 183.304688 67.988281 187.144531 67.988281 C 190.980469 67.988281 194.09375 71.097656 194.09375 74.9375 " fill-opacity="1" fill-rule="nonzero"/><path fill="#00adef" d="M 194.09375 251.960938 C 194.09375 255.800781 190.980469 258.910156 187.144531 258.910156 C 183.304688 258.910156 180.191406 255.800781 180.191406 251.960938 C 180.191406 248.121094 183.304688 245.011719 187.144531 245.011719 C 190.980469 245.011719 194.09375 248.121094 194.09375 251.960938 " fill-opacity="1" fill-rule="nonzero"/><path fill="#00adef" d="M 244.816406 230.949219 C 242.101562 228.238281 242.101562 223.835938 244.816406 221.121094 C 247.527344 218.40625 251.929688 218.40625 254.644531 221.121094 C 257.359375 223.835938 257.359375 228.238281 254.644531 230.949219 C 251.929688 233.664062 247.527344 233.664062 244.816406 230.949219 " fill-opacity="1" fill-rule="nonzero"/><path fill="#00adef" d="M 119.640625 105.777344 C 116.925781 103.0625 116.925781 98.660156 119.640625 95.949219 C 122.355469 93.230469 126.757812 93.230469 129.46875 95.949219 C 132.183594 98.660156 132.183594 103.0625 129.46875 105.777344 C 126.757812 108.492188 122.355469 108.492188 119.640625 105.777344 " fill-opacity="1" fill-rule="nonzero"/><path fill="#00adef" d="M 271.914062 137.070312 C 268.351562 138.492188 264.308594 136.757812 262.882812 133.191406 C 261.460938 129.628906 263.195312 125.585938 266.761719 124.160156 C 270.328125 122.738281 274.371094 124.472656 275.792969 128.035156 C 277.21875 131.601562 275.480469 135.644531 271.914062 137.070312 " fill-opacity="1" fill-rule="nonzero"/><path fill="#00adef" d="M 107.523438 202.734375 C 103.960938 204.160156 99.914062 202.425781 98.492188 198.859375 C 97.066406 195.296875 98.804688 191.25 102.367188 189.828125 C 105.933594 188.40625 109.976562 190.140625 111.398438 193.703125 C 112.824219 197.269531 111.089844 201.3125 107.523438 202.734375 " fill-opacity="1" fill-rule="nonzero"/><path fill="#00adef" d="M 221.945312 275.296875 C 220.066406 270.59375 222.355469 265.257812 227.058594 263.378906 C 231.761719 261.503906 237.097656 263.792969 238.976562 268.496094 C 240.855469 273.199219 238.566406 278.53125 233.863281 280.410156 C 229.160156 282.289062 223.824219 280 221.945312 275.296875 " fill-opacity="1" fill-rule="nonzero"/><path fill="#00adef" d="M 135.308594 58.402344 C 133.429688 53.699219 135.71875 48.363281 140.421875 46.488281 C 145.125 44.609375 150.460938 46.894531 152.339844 51.601562 C 154.21875 56.304688 151.929688 61.636719 147.226562 63.515625 C 142.523438 65.394531 137.1875 63.105469 135.308594 58.402344 " fill-opacity="1" fill-rule="nonzero"/><g fill="#ffffff" fill-opacity="1"><g transform="translate(95.62171, 374.051906)"><g><path d="M 39.796875 -39.9375 L 14.125 -39.9375 L 14.125 -27.234375 L 37.109375 -27.234375 L 37.109375 -20.109375 L 14.125 -20.109375 L 14.125 -7.125 L 40.609375 -7.125 L 40.609375 0 L 6.1875 0 L 6.1875 -47.0625 L 39.796875 -47.0625 Z M 39.796875 -39.9375 "/></g></g></g><g fill="#ffffff" fill-opacity="1"><g transform="translate(143.139602, 374.051906)"><g><path d="M 27.15625 0 L 18.953125 0 L 0.203125 -47.0625 L 8.734375 -47.0625 L 23.265625 -8.8125 L 37.921875 -47.0625 L 46.1875 -47.0625 Z M 27.15625 0 "/></g></g></g><g fill="#ffffff" fill-opacity="1"><g transform="translate(192.942581, 374.051906)"><g><path d="M 39.796875 -39.9375 L 14.125 -39.9375 L 14.125 -27.234375 L 37.109375 -27.234375 L 37.109375 -20.109375 L 14.125 -20.109375 L 14.125 -7.125 L 40.609375 -7.125 L 40.609375 0 L 6.1875 0 L 6.1875 -47.0625 L 39.796875 -47.0625 Z M 39.796875 -39.9375 "/></g></g></g><g fill="#ffffff" fill-opacity="1"><g transform="translate(240.460471, 374.051906)"><g><path d="M 38.328125 -39.9375 L 23.390625 -39.9375 L 23.390625 0 L 15.46875 0 L 15.46875 -39.9375 L 0.609375 -39.9375 L 0.609375 -47.0625 L 38.328125 -47.0625 Z M 38.328125 -39.9375 "/></g></g></g></svg>