<svg xmlns="http://www.w3.org/2000/svg" xmlns:xlink="http://www.w3.org/1999/xlink" width="1000" zoomAndPan="magnify" viewBox="0 0 750 749.999995" height="1000" preserveAspectRatio="xMidYMid meet" version="1.0"><defs><g/><clipPath id="7a1c350f67"><path d="M 351 4.050781 L 393 4.050781 L 393 45 L 351 45 Z M 351 4.050781 " clip-rule="nonzero"/></clipPath><clipPath id="b7b0a26c45"><path d="M 351 518 L 393 518 L 393 558.5 L 351 558.5 Z M 351 518 " clip-rule="nonzero"/></clipPath><clipPath id="e4cd4cc7fd"><path d="M 608 261 L 649.097656 261 L 649.097656 302 L 608 302 Z M 608 261 " clip-rule="nonzero"/></clipPath><clipPath id="b04a860a3b"><path d="M 94.648438 261 L 136 261 L 136 302 L 94.648438 302 Z M 94.648438 261 " clip-rule="nonzero"/></clipPath></defs><path fill="#ffffff" d="M 461.144531 338.734375 C 471.160156 327.527344 471.234375 310.890625 461.96875 299.628906 C 472.765625 285.671875 481.421875 270.84375 487.8125 255.300781 C 495.882812 235.679688 500.382812 214.90625 501.183594 193.550781 C 502.09375 169.300781 498.074219 150.027344 495.167969 139.5625 C 501.800781 132.613281 503.375 121.863281 498.328125 113.117188 C 492.191406 102.492188 478.605469 98.851562 467.976562 104.984375 C 457.351562 111.121094 453.710938 124.707031 459.847656 135.335938 C 465.644531 145.382812 478.105469 149.183594 488.429688 144.382812 C 491.089844 154.855469 494.300781 172.351562 493.460938 193.605469 C 493.042969 204.128906 491.578125 216.3125 488.183594 229.503906 C 486.878906 225.824219 485.421875 222.1875 483.808594 218.597656 C 475.996094 201.242188 466.460938 189.105469 460.773438 182.769531 C 463.007812 175.574219 460.375 167.476562 453.78125 163.097656 C 445.773438 157.769531 434.960938 159.945312 429.632812 167.957031 C 424.304688 175.96875 426.480469 186.78125 434.492188 192.105469 C 442.0625 197.144531 452.140625 195.46875 457.71875 188.5 C 463.234375 194.933594 471.585938 206.101562 478.398438 221.328125 C 480.832031 226.761719 483.179688 233.003906 485.132812 239.980469 C 479.519531 257.214844 470.492188 275.765625 456.300781 294.308594 C 443.976562 285.410156 426.675781 287.085938 416.324219 298.667969 C 405.257812 311.042969 406.320312 330.046875 418.695312 341.109375 C 431.074219 352.175781 450.074219 351.113281 461.144531 338.734375 " fill-opacity="1" fill-rule="nonzero"/><path fill="#00adef" d="M 366.746094 387.3125 C 381.460938 390.386719 395.90625 382.128906 401.023438 368.476562 C 418.511719 370.855469 435.683594 370.933594 452.339844 368.695312 C 473.359375 365.875 493.601562 359.382812 512.5 349.398438 C 533.957031 338.0625 548.632812 324.945312 556.246094 317.195312 C 565.585938 319.46875 575.679688 315.453125 580.726562 306.710938 C 586.859375 296.082031 583.222656 282.496094 572.59375 276.363281 C 561.96875 270.222656 548.382812 273.863281 542.242188 284.492188 C 536.445312 294.539062 539.382812 307.230469 548.703125 313.769531 C 540.964844 321.308594 527.417969 332.835938 508.59375 342.734375 C 499.269531 347.640625 487.980469 352.460938 474.859375 356.117188 C 477.398438 353.148438 479.820312 350.066406 482.117188 346.875 C 493.246094 331.4375 498.988281 317.105469 501.632812 309.011719 C 508.980469 307.351562 514.671875 301.019531 515.175781 293.121094 C 515.78125 283.519531 508.488281 275.242188 498.890625 274.636719 C 489.289062 274.027344 481.011719 281.320312 480.402344 290.921875 C 479.828125 299.996094 486.316406 307.886719 495.136719 309.234375 C 492.324219 317.222656 486.828125 330.042969 477.054688 343.554688 C 473.5625 348.378906 469.332031 353.535156 464.265625 358.710938 C 446.535156 362.46875 425.953125 363.929688 402.796875 360.90625 C 404.339844 345.792969 394.242188 331.640625 379.035156 328.464844 C 362.785156 325.074219 346.859375 335.496094 343.46875 351.746094 C 340.070312 367.996094 350.492188 383.921875 366.746094 387.3125 " fill-opacity="1" fill-rule="nonzero"/><path fill="#ffffff" d="M 277.476562 329.855469 C 282.171875 344.132812 296.546875 352.519531 310.929688 350.121094 C 317.617188 366.457031 326.132812 381.363281 336.394531 394.671875 C 349.351562 411.46875 365.09375 425.75 383.1875 437.121094 C 403.730469 450.039062 422.429688 456.191406 432.949219 458.90625 C 435.65625 468.132812 444.175781 474.863281 454.273438 474.863281 C 466.542969 474.863281 476.492188 464.917969 476.492188 452.648438 C 476.492188 440.378906 466.542969 430.433594 454.273438 430.433594 C 442.671875 430.433594 433.148438 439.324219 432.144531 450.660156 C 421.746094 447.726562 404.992188 441.765625 387.007812 430.410156 C 378.097656 424.785156 368.277344 417.417969 358.550781 407.886719 C 362.390625 408.597656 366.269531 409.15625 370.183594 409.550781 C 389.121094 411.464844 404.398438 409.273438 412.730469 407.515625 C 417.84375 413.050781 426.171875 414.816406 433.261719 411.300781 C 441.886719 407.023438 445.40625 396.570312 441.132812 387.953125 C 436.855469 379.335938 426.402344 375.816406 417.785156 380.085938 C 409.636719 384.128906 406.046875 393.691406 409.292969 402.007812 C 400.96875 403.566406 387.121094 405.214844 370.527344 403.503906 C 364.601562 402.890625 358.023438 401.804688 351.007812 400.011719 C 338.886719 386.53125 327.332031 369.4375 318.371094 347.875 C 332.238281 341.652344 339.4375 325.832031 334.585938 311.070312 C 329.398438 295.300781 312.410156 286.722656 296.640625 291.910156 C 280.871094 297.09375 272.289062 314.082031 277.476562 329.855469 " fill-opacity="1" fill-rule="nonzero"/><path fill="#00adef" d="M 282.605469 223.816406 C 272.585938 235.023438 272.511719 251.660156 281.773438 262.921875 C 270.976562 276.875 262.320312 291.707031 255.929688 307.25 C 247.859375 326.871094 243.363281 347.644531 242.5625 368.996094 C 241.648438 393.25 245.671875 412.519531 248.578125 422.984375 C 241.941406 429.9375 240.371094 440.6875 245.417969 449.433594 C 251.550781 460.058594 265.140625 463.699219 275.769531 457.5625 C 286.394531 451.425781 290.035156 437.84375 283.898438 427.214844 C 278.097656 417.167969 265.636719 413.367188 255.316406 418.164062 C 252.65625 407.695312 249.445312 390.199219 250.285156 368.945312 C 250.703125 358.421875 252.171875 346.234375 255.5625 333.046875 C 256.867188 336.722656 258.324219 340.363281 259.9375 343.949219 C 267.746094 361.308594 277.285156 373.441406 282.972656 379.78125 C 280.734375 386.976562 283.371094 395.070312 289.964844 399.453125 C 297.976562 404.777344 308.785156 402.605469 314.113281 394.59375 C 319.441406 386.582031 317.265625 375.769531 309.253906 370.445312 C 301.679688 365.40625 291.605469 367.078125 286.023438 374.042969 C 280.511719 367.613281 272.160156 356.449219 265.347656 341.222656 C 262.914062 335.785156 260.566406 329.542969 258.613281 322.570312 C 264.226562 305.335938 273.25 286.785156 287.445312 268.242188 C 299.769531 277.140625 317.070312 275.464844 327.421875 263.882812 C 338.488281 251.507812 337.425781 232.503906 325.046875 221.441406 C 312.671875 210.375 293.667969 211.4375 282.605469 223.816406 " fill-opacity="1" fill-rule="nonzero"/><path fill="#ffffff" d="M 377 175.238281 C 362.285156 172.164062 347.835938 180.417969 342.71875 194.070312 C 325.230469 191.695312 308.0625 191.617188 291.410156 193.855469 C 270.382812 196.671875 250.140625 203.167969 231.246094 213.152344 C 209.789062 224.484375 195.109375 237.601562 187.496094 245.351562 C 178.160156 243.082031 168.066406 247.097656 163.019531 255.839844 C 156.882812 266.464844 160.523438 280.054688 171.148438 286.1875 C 181.777344 292.324219 195.367188 288.683594 201.5 278.058594 C 207.300781 268.011719 204.359375 255.316406 195.042969 248.777344 C 202.785156 241.242188 216.328125 229.714844 235.152344 219.816406 C 244.476562 214.910156 255.765625 210.089844 268.886719 206.433594 C 266.347656 209.402344 263.929688 212.484375 261.625 215.675781 C 250.5 231.113281 244.761719 245.445312 242.113281 253.539062 C 234.765625 255.199219 229.070312 261.527344 228.570312 269.425781 C 227.964844 279.03125 235.253906 287.308594 244.859375 287.914062 C 254.460938 288.523438 262.734375 281.230469 263.34375 271.628906 C 263.914062 262.554688 257.429688 254.664062 248.605469 253.316406 C 251.417969 245.324219 256.917969 232.507812 266.691406 218.996094 C 270.183594 214.171875 274.414062 209.011719 279.476562 203.839844 C 297.210938 200.082031 317.792969 198.621094 340.945312 201.640625 C 339.402344 216.757812 349.503906 230.90625 364.710938 234.085938 C 380.960938 237.476562 396.882812 227.054688 400.28125 210.804688 C 403.675781 194.554688 393.253906 178.628906 377 175.238281 " fill-opacity="1" fill-rule="nonzero"/><path fill="#00adef" d="M 466.269531 232.695312 C 461.574219 218.414062 447.199219 210.03125 432.8125 212.425781 C 426.128906 196.09375 417.617188 181.1875 407.351562 167.878906 C 394.394531 151.078125 378.652344 136.800781 360.558594 125.429688 C 340.011719 112.511719 321.3125 106.359375 310.796875 103.640625 C 308.09375 94.417969 299.570312 87.683594 289.472656 87.683594 C 277.203125 87.683594 267.253906 97.632812 267.253906 109.902344 C 267.253906 122.171875 277.203125 132.117188 289.472656 132.117188 C 301.074219 132.117188 310.597656 123.226562 311.601562 111.886719 C 321.996094 114.820312 338.753906 120.785156 356.742188 132.140625 C 365.648438 137.765625 375.46875 145.128906 385.191406 154.664062 C 381.351562 153.953125 377.476562 153.394531 373.558594 153 C 354.625 151.085938 339.347656 153.277344 331.011719 155.03125 C 325.902344 149.496094 317.574219 147.730469 310.480469 151.25 C 301.863281 155.527344 298.339844 165.972656 302.613281 174.597656 C 306.890625 183.214844 317.339844 186.734375 325.960938 182.464844 C 334.109375 178.417969 337.699219 168.859375 334.453125 160.542969 C 342.777344 158.984375 356.628906 157.335938 373.21875 159.042969 C 379.144531 159.65625 385.722656 160.742188 392.738281 162.539062 C 404.855469 176.015625 416.410156 193.113281 425.371094 214.675781 C 411.507812 220.898438 404.308594 236.71875 409.160156 251.476562 C 414.347656 267.25 431.332031 275.828125 447.101562 270.640625 C 462.871094 265.457031 471.457031 248.464844 466.269531 232.695312 " fill-opacity="1" fill-rule="nonzero"/><g clip-path="url(#7a1c350f67)"><path fill="#ffffff" d="M 392.054688 24.234375 C 392.054688 35.378906 383.019531 44.417969 371.871094 44.417969 C 360.726562 44.417969 351.6875 35.378906 351.6875 24.234375 C 351.6875 13.085938 360.726562 4.050781 371.871094 4.050781 C 383.019531 4.050781 392.054688 13.085938 392.054688 24.234375 " fill-opacity="1" fill-rule="nonzero"/></g><g clip-path="url(#b7b0a26c45)"><path fill="#ffffff" d="M 392.054688 538.316406 C 392.054688 549.464844 383.019531 558.5 371.871094 558.5 C 360.726562 558.5 351.6875 549.464844 351.6875 538.316406 C 351.6875 527.167969 360.726562 518.132812 371.871094 518.132812 C 383.019531 518.132812 392.054688 527.167969 392.054688 538.316406 " fill-opacity="1" fill-rule="nonzero"/></g><g clip-path="url(#e4cd4cc7fd)"><path fill="#ffffff" d="M 628.914062 301.457031 C 617.761719 301.457031 608.730469 292.421875 608.730469 281.273438 C 608.730469 270.128906 617.761719 261.089844 628.914062 261.089844 C 640.0625 261.089844 649.097656 270.128906 649.097656 281.273438 C 649.097656 292.421875 640.0625 301.457031 628.914062 301.457031 " fill-opacity="1" fill-rule="nonzero"/></g><g clip-path="url(#b04a860a3b)"><path fill="#ffffff" d="M 114.832031 301.457031 C 103.683594 301.457031 94.648438 292.421875 94.648438 281.273438 C 94.648438 270.128906 103.683594 261.09375 114.832031 261.09375 C 125.976562 261.09375 135.015625 270.128906 135.015625 281.273438 C 135.015625 292.421875 125.976562 301.457031 114.832031 301.457031 " fill-opacity="1" fill-rule="nonzero"/></g><path fill="#ffffff" d="M 567.898438 113.789062 C 560.019531 121.675781 547.238281 121.675781 539.355469 113.789062 C 531.472656 105.910156 531.472656 93.128906 539.355469 85.25 C 547.238281 77.367188 560.019531 77.367188 567.898438 85.25 C 575.78125 93.128906 575.78125 105.910156 567.898438 113.789062 " fill-opacity="1" fill-rule="nonzero"/><path fill="#ffffff" d="M 204.386719 477.300781 C 196.507812 485.183594 183.726562 485.183594 175.847656 477.300781 C 167.960938 469.421875 167.960938 456.640625 175.847656 448.757812 C 183.726562 440.875 196.507812 440.875 204.386719 448.757812 C 212.273438 456.640625 212.273438 469.421875 204.386719 477.300781 " fill-opacity="1" fill-rule="nonzero"/><path fill="#ffffff" d="M 539.355469 477.300781 C 531.472656 469.421875 531.472656 456.640625 539.355469 448.757812 C 547.238281 440.875 560.019531 440.875 567.898438 448.757812 C 575.78125 456.640625 575.78125 469.421875 567.898438 477.300781 C 560.019531 485.183594 547.238281 485.183594 539.355469 477.300781 " fill-opacity="1" fill-rule="nonzero"/><path fill="#ffffff" d="M 175.847656 113.789062 C 167.960938 105.910156 167.960938 93.128906 175.847656 85.25 C 183.726562 77.367188 196.507812 77.367188 204.386719 85.25 C 212.273438 93.128906 212.273438 105.910156 204.386719 113.789062 C 196.507812 121.675781 183.726562 121.675781 175.847656 113.789062 " fill-opacity="1" fill-rule="nonzero"/><path fill="#00adef" d="M 491.785156 53.023438 C 487.390625 63.265625 475.523438 68.007812 465.277344 63.609375 C 455.035156 59.214844 450.296875 47.347656 454.691406 37.101562 C 459.085938 26.859375 470.953125 22.121094 481.195312 26.515625 C 491.441406 30.914062 496.183594 42.78125 491.785156 53.023438 " fill-opacity="1" fill-rule="nonzero"/><path fill="#00adef" d="M 289.054688 525.445312 C 284.65625 535.691406 272.789062 540.425781 262.546875 536.035156 C 252.304688 531.636719 247.5625 519.769531 251.960938 509.527344 C 256.355469 499.28125 268.222656 494.542969 278.46875 498.9375 C 288.710938 503.332031 293.449219 515.203125 289.054688 525.445312 " fill-opacity="1" fill-rule="nonzero"/><path fill="#00adef" d="M 600.125 401.1875 C 589.882812 396.792969 585.140625 384.925781 589.535156 374.679688 C 593.933594 364.4375 605.800781 359.699219 616.042969 364.09375 C 626.289062 368.488281 631.023438 380.355469 626.632812 390.597656 C 622.234375 400.84375 610.367188 405.585938 600.125 401.1875 " fill-opacity="1" fill-rule="nonzero"/><path fill="#00adef" d="M 127.703125 198.457031 C 117.460938 194.058594 112.71875 182.195312 117.117188 171.949219 C 121.511719 161.707031 133.378906 156.964844 143.621094 161.363281 C 153.867188 165.757812 158.605469 177.625 154.210938 187.867188 C 149.8125 198.113281 137.949219 202.855469 127.703125 198.457031 " fill-opacity="1" fill-rule="nonzero"/><path fill="#00adef" d="M 618.0625 204.667969 C 607.710938 208.804688 595.964844 203.765625 591.832031 193.414062 C 587.699219 183.0625 592.738281 171.316406 603.089844 167.179688 C 613.441406 163.050781 625.183594 168.085938 629.316406 178.441406 C 633.453125 188.789062 628.414062 200.535156 618.0625 204.667969 " fill-opacity="1" fill-rule="nonzero"/><path fill="#00adef" d="M 140.660156 395.367188 C 130.304688 399.5 118.5625 394.460938 114.425781 384.109375 C 110.292969 373.761719 115.332031 362.015625 125.683594 357.882812 C 136.035156 353.746094 147.777344 358.785156 151.914062 369.136719 C 156.050781 379.488281 151.007812 391.234375 140.660156 395.367188 " fill-opacity="1" fill-rule="nonzero"/><path fill="#00adef" d="M 387.171875 86.449219 C 387.171875 94.902344 380.320312 101.75 371.871094 101.75 C 363.425781 101.75 356.574219 94.902344 356.574219 86.449219 C 356.574219 78.003906 363.425781 71.15625 371.871094 71.15625 C 380.320312 71.15625 387.171875 78.003906 387.171875 86.449219 " fill-opacity="1" fill-rule="nonzero"/><path fill="#00adef" d="M 387.171875 476.097656 C 387.171875 484.546875 380.320312 491.394531 371.871094 491.394531 C 363.425781 491.394531 356.574219 484.546875 356.574219 476.097656 C 356.574219 467.648438 363.425781 460.800781 371.871094 460.800781 C 380.320312 460.800781 387.171875 467.648438 387.171875 476.097656 " fill-opacity="1" fill-rule="nonzero"/><path fill="#00adef" d="M 498.816406 429.851562 C 492.839844 423.878906 492.839844 414.191406 498.816406 408.21875 C 504.789062 402.242188 514.476562 402.242188 520.449219 408.21875 C 526.425781 414.191406 526.425781 423.878906 520.449219 429.851562 C 514.476562 435.828125 504.789062 435.828125 498.816406 429.851562 " fill-opacity="1" fill-rule="nonzero"/><path fill="#00adef" d="M 223.296875 154.332031 C 217.320312 148.359375 217.320312 138.671875 223.296875 132.699219 C 229.269531 126.722656 238.957031 126.722656 244.929688 132.699219 C 250.902344 138.671875 250.902344 148.359375 244.929688 154.332031 C 238.957031 160.308594 229.269531 160.308594 223.296875 154.332031 " fill-opacity="1" fill-rule="nonzero"/><path fill="#00adef" d="M 558.464844 223.210938 C 550.621094 226.34375 541.726562 222.527344 538.585938 214.679688 C 535.457031 206.832031 539.277344 197.933594 547.121094 194.800781 C 554.96875 191.667969 563.867188 195.484375 567.003906 203.328125 C 570.136719 211.175781 566.3125 220.078125 558.464844 223.210938 " fill-opacity="1" fill-rule="nonzero"/><path fill="#00adef" d="M 196.625 367.75 C 188.78125 370.882812 179.878906 367.066406 176.746094 359.21875 C 173.609375 351.375 177.429688 342.472656 185.277344 339.339844 C 193.121094 336.207031 202.023438 340.023438 205.15625 347.871094 C 208.289062 355.714844 204.472656 364.617188 196.625 367.75 " fill-opacity="1" fill-rule="nonzero"/><path fill="#00adef" d="M 448.480469 527.464844 C 444.34375 517.113281 449.382812 505.367188 459.734375 501.234375 C 470.085938 497.101562 481.832031 502.136719 485.964844 512.492188 C 490.097656 522.84375 485.058594 534.585938 474.707031 538.71875 C 464.355469 542.855469 452.613281 537.816406 448.480469 527.464844 " fill-opacity="1" fill-rule="nonzero"/><path fill="#00adef" d="M 257.78125 50.058594 C 253.644531 39.707031 258.683594 27.964844 269.035156 23.832031 C 279.386719 19.695312 291.132812 24.734375 295.265625 35.085938 C 299.402344 45.4375 294.363281 57.179688 284.011719 61.316406 C 273.660156 65.449219 261.914062 60.410156 257.78125 50.058594 " fill-opacity="1" fill-rule="nonzero"/><g fill="#ffffff" fill-opacity="1"><g transform="translate(170.426882, 744.83222)"><g><path d="M 87.609375 -87.90625 L 31.078125 -87.90625 L 31.078125 -59.9375 L 81.6875 -59.9375 L 81.6875 -44.25 L 31.078125 -44.25 L 31.078125 -15.6875 L 89.375 -15.6875 L 89.375 0 L 13.609375 0 L 13.609375 -103.59375 L 87.609375 -103.59375 Z M 87.609375 -87.90625 "/></g></g></g><g fill="#ffffff" fill-opacity="1"><g transform="translate(275.01811, 744.83222)"><g><path d="M 59.78125 0 L 41.734375 0 L 0.4375 -103.59375 L 19.234375 -103.59375 L 51.203125 -19.390625 L 83.46875 -103.59375 L 101.671875 -103.59375 Z M 59.78125 0 "/></g></g></g><g fill="#ffffff" fill-opacity="1"><g transform="translate(384.639022, 744.83222)"><g><path d="M 87.609375 -87.90625 L 31.078125 -87.90625 L 31.078125 -59.9375 L 81.6875 -59.9375 L 81.6875 -44.25 L 31.078125 -44.25 L 31.078125 -15.6875 L 89.375 -15.6875 L 89.375 0 L 13.609375 0 L 13.609375 -103.59375 L 87.609375 -103.59375 Z M 87.609375 -87.90625 "/></g></g></g><g fill="#ffffff" fill-opacity="1"><g transform="translate(489.230246, 744.83222)"><g><path d="M 84.34375 -87.90625 L 51.5 -87.90625 L 51.5 0 L 34.03125 0 L 34.03125 -87.90625 L 1.328125 -87.90625 L 1.328125 -103.59375 L 84.34375 -103.59375 Z M 84.34375 -87.90625 "/></g></g></g></svg>